<mxfile host="Electron" agent="Mozilla/5.0 (Windows NT 10.0; Win64; x64) AppleWebKit/537.36 (KHTML, like Gecko) draw.io/27.0.5 Chrome/134.0.6998.205 Electron/35.3.0 Safari/537.36" version="27.0.5">
  <diagram name="Seite-1" id="HIx9aKau_N8PS9SPKcH3">
    <mxGraphModel dx="1106" dy="661" grid="1" gridSize="10" guides="1" tooltips="1" connect="1" arrows="1" fold="1" page="1" pageScale="1" pageWidth="827" pageHeight="1169" math="0" shadow="0">
      <root>
        <mxCell id="0" />
        <mxCell id="1" parent="0" />
        <mxCell id="BNJmITa53caQSYUBU9Bt-1" value="" style="rounded=0;whiteSpace=wrap;html=1;strokeColor=light-dark(#7d7d7d, #ededed);" vertex="1" parent="1">
          <mxGeometry x="60" y="560" width="160" height="640" as="geometry" />
        </mxCell>
        <mxCell id="BNJmITa53caQSYUBU9Bt-2" value="Sources" style="rounded=0;whiteSpace=wrap;html=1;align=center;strokeColor=none;" vertex="1" parent="1">
          <mxGeometry x="80" y="540" width="120" height="60" as="geometry" />
        </mxCell>
        <mxCell id="BNJmITa53caQSYUBU9Bt-3" value="" style="rounded=0;whiteSpace=wrap;html=1;fillColor=#f5f5f5;strokeColor=#666666;fontColor=#333333;" vertex="1" parent="1">
          <mxGeometry x="317" y="560" width="553" height="640" as="geometry" />
        </mxCell>
        <mxCell id="BNJmITa53caQSYUBU9Bt-4" value="" style="rounded=0;whiteSpace=wrap;html=1;" vertex="1" parent="1">
          <mxGeometry x="940" y="560" width="170" height="630" as="geometry" />
        </mxCell>
        <mxCell id="BNJmITa53caQSYUBU9Bt-5" value="Data Warehouse" style="rounded=0;whiteSpace=wrap;html=1;strokeColor=none;" vertex="1" parent="1">
          <mxGeometry x="512" y="530" width="120" height="60" as="geometry" />
        </mxCell>
        <mxCell id="BNJmITa53caQSYUBU9Bt-6" value="Consume" style="rounded=0;whiteSpace=wrap;html=1;strokeColor=none;" vertex="1" parent="1">
          <mxGeometry x="975" y="530" width="120" height="60" as="geometry" />
        </mxCell>
        <mxCell id="BNJmITa53caQSYUBU9Bt-7" value="Bronze Layer" style="rounded=0;whiteSpace=wrap;html=1;fillColor=#f8cecc;strokeColor=#b85450;" vertex="1" parent="1">
          <mxGeometry x="340" y="600" width="140" height="30" as="geometry" />
        </mxCell>
        <mxCell id="BNJmITa53caQSYUBU9Bt-8" value="" style="rounded=0;whiteSpace=wrap;html=1;" vertex="1" parent="1">
          <mxGeometry x="340" y="650" width="140" height="530" as="geometry" />
        </mxCell>
        <mxCell id="BNJmITa53caQSYUBU9Bt-10" value="" style="rounded=0;whiteSpace=wrap;html=1;" vertex="1" parent="1">
          <mxGeometry x="520" y="640" width="140" height="540" as="geometry" />
        </mxCell>
        <mxCell id="BNJmITa53caQSYUBU9Bt-12" value="" style="rounded=0;whiteSpace=wrap;html=1;" vertex="1" parent="1">
          <mxGeometry x="700" y="640" width="140" height="540" as="geometry" />
        </mxCell>
        <mxCell id="BNJmITa53caQSYUBU9Bt-16" value="Silver Layer" style="rounded=0;whiteSpace=wrap;html=1;fillColor=#6d8764;strokeColor=#3A5431;fontColor=#ffffff;" vertex="1" parent="1">
          <mxGeometry x="520" y="600" width="140" height="30" as="geometry" />
        </mxCell>
        <mxCell id="BNJmITa53caQSYUBU9Bt-17" value="Gold Layer" style="rounded=0;whiteSpace=wrap;html=1;fillColor=#f0a30a;strokeColor=#BD7000;fontColor=#000000;" vertex="1" parent="1">
          <mxGeometry x="700" y="600" width="140" height="30" as="geometry" />
        </mxCell>
        <mxCell id="BNJmITa53caQSYUBU9Bt-19" value="CRM" style="image;aspect=fixed;html=1;points=[];align=center;fontSize=12;image=img/lib/azure2/general/Folder_Blank.svg;" vertex="1" parent="1">
          <mxGeometry x="101.81" y="680" width="69" height="56.00000000000001" as="geometry" />
        </mxCell>
        <mxCell id="BNJmITa53caQSYUBU9Bt-20" value="" style="image;aspect=fixed;html=1;points=[];align=center;fontSize=12;image=img/lib/azure2/general/File.svg;" vertex="1" parent="1">
          <mxGeometry x="146.46" y="710" width="24.35" height="30" as="geometry" />
        </mxCell>
        <mxCell id="BNJmITa53caQSYUBU9Bt-21" value="ERP" style="image;aspect=fixed;html=1;points=[];align=center;fontSize=12;image=img/lib/azure2/general/Folder_Blank.svg;" vertex="1" parent="1">
          <mxGeometry x="100.5" y="776" width="69" height="56.00000000000001" as="geometry" />
        </mxCell>
        <mxCell id="BNJmITa53caQSYUBU9Bt-22" value="" style="image;aspect=fixed;html=1;points=[];align=center;fontSize=12;image=img/lib/azure2/general/File.svg;" vertex="1" parent="1">
          <mxGeometry x="146.45999999999998" y="810" width="23.54" height="29" as="geometry" />
        </mxCell>
        <mxCell id="BNJmITa53caQSYUBU9Bt-24" value="Object Types : CSV Files&lt;div&gt;Interfaces : Files in Folder&lt;/div&gt;" style="text;html=1;align=center;verticalAlign=middle;whiteSpace=wrap;rounded=0;" vertex="1" parent="1">
          <mxGeometry x="80" y="870" width="110" height="70" as="geometry" />
        </mxCell>
        <mxCell id="BNJmITa53caQSYUBU9Bt-25" value="" style="html=1;verticalLabelPosition=bottom;align=center;labelBackgroundColor=#ffffff;verticalAlign=top;strokeWidth=2;strokeColor=#b85450;shadow=0;dashed=0;shape=mxgraph.ios7.icons.data;fillColor=#f8cecc;" vertex="1" parent="1">
          <mxGeometry x="365" y="755.1" width="70" height="64" as="geometry" />
        </mxCell>
        <mxCell id="BNJmITa53caQSYUBU9Bt-26" value="" style="html=1;verticalLabelPosition=bottom;align=center;labelBackgroundColor=#ffffff;verticalAlign=top;strokeWidth=2;strokeColor=#3A5431;shadow=0;dashed=0;shape=mxgraph.ios7.icons.data;fillColor=#6d8764;fontColor=#ffffff;" vertex="1" parent="1">
          <mxGeometry x="540" y="760" width="80" height="59.1" as="geometry" />
        </mxCell>
        <mxCell id="BNJmITa53caQSYUBU9Bt-27" value="" style="html=1;verticalLabelPosition=bottom;align=center;labelBackgroundColor=#ffffff;verticalAlign=top;strokeWidth=2;strokeColor=#BD7000;shadow=0;dashed=0;shape=mxgraph.ios7.icons.data;fillColor=#f0a30a;fontColor=#000000;" vertex="1" parent="1">
          <mxGeometry x="720" y="760" width="80" height="59.1" as="geometry" />
        </mxCell>
        <mxCell id="BNJmITa53caQSYUBU9Bt-28" value="" style="shape=mxgraph.arrows.arrow_right;html=1;verticalLabelPosition=bottom;verticalAlign=top;strokeWidth=2;fillColor=#d0cee2;strokeColor=#56517e;" vertex="1" parent="1">
          <mxGeometry x="220" y="749" width="120" height="70" as="geometry" />
        </mxCell>
        <mxCell id="BNJmITa53caQSYUBU9Bt-29" value="" style="shape=mxgraph.arrows.arrow_right;html=1;verticalLabelPosition=bottom;verticalAlign=top;strokeWidth=2;strokeColor=#56517e;fillColor=#d0cee2;" vertex="1" parent="1">
          <mxGeometry x="450" y="752.1" width="80" height="70" as="geometry" />
        </mxCell>
        <mxCell id="BNJmITa53caQSYUBU9Bt-30" value="" style="shape=mxgraph.arrows.arrow_right;html=1;verticalLabelPosition=bottom;verticalAlign=top;strokeWidth=2;strokeColor=#56517e;fillColor=#d0cee2;" vertex="1" parent="1">
          <mxGeometry x="632" y="755.1" width="80" height="70" as="geometry" />
        </mxCell>
        <mxCell id="BNJmITa53caQSYUBU9Bt-31" value="" style="shape=mxgraph.arrows.arrow_right;html=1;verticalLabelPosition=bottom;verticalAlign=top;strokeWidth=2;strokeColor=#56517e;fillColor=#d0cee2;" vertex="1" parent="1">
          <mxGeometry x="810" y="755.1" width="140" height="70" as="geometry" />
        </mxCell>
        <mxCell id="BNJmITa53caQSYUBU9Bt-32" value="&lt;font style=&quot;font-size: 16px;&quot;&gt;Raw Data&lt;/font&gt;" style="text;html=1;align=center;verticalAlign=middle;whiteSpace=wrap;rounded=0;" vertex="1" parent="1">
          <mxGeometry x="360" y="832" width="90" height="28" as="geometry" />
        </mxCell>
        <mxCell id="BNJmITa53caQSYUBU9Bt-33" value="&lt;font style=&quot;font-size: 16px;&quot;&gt;Clean &amp;amp; Standardised Data&lt;/font&gt;" style="text;html=1;align=center;verticalAlign=middle;whiteSpace=wrap;rounded=0;" vertex="1" parent="1">
          <mxGeometry x="530" y="841" width="90" height="28" as="geometry" />
        </mxCell>
        <mxCell id="BNJmITa53caQSYUBU9Bt-34" value="&lt;font style=&quot;font-size: 16px;&quot;&gt;Buisiness Ready Data&lt;/font&gt;" style="text;html=1;align=center;verticalAlign=middle;whiteSpace=wrap;rounded=0;" vertex="1" parent="1">
          <mxGeometry x="715" y="841" width="90" height="28" as="geometry" />
        </mxCell>
        <mxCell id="BNJmITa53caQSYUBU9Bt-36" value="" style="endArrow=none;html=1;rounded=0;" edge="1" parent="1">
          <mxGeometry width="50" height="50" relative="1" as="geometry">
            <mxPoint x="350" y="880" as="sourcePoint" />
            <mxPoint x="450" y="880" as="targetPoint" />
            <Array as="points">
              <mxPoint x="400" y="880" />
            </Array>
          </mxGeometry>
        </mxCell>
        <mxCell id="BNJmITa53caQSYUBU9Bt-37" value="" style="endArrow=none;html=1;rounded=0;" edge="1" parent="1">
          <mxGeometry width="50" height="50" relative="1" as="geometry">
            <mxPoint x="532" y="890" as="sourcePoint" />
            <mxPoint x="632" y="890" as="targetPoint" />
            <Array as="points">
              <mxPoint x="582" y="890" />
            </Array>
          </mxGeometry>
        </mxCell>
        <mxCell id="BNJmITa53caQSYUBU9Bt-38" value="" style="endArrow=none;html=1;rounded=0;" edge="1" parent="1">
          <mxGeometry width="50" height="50" relative="1" as="geometry">
            <mxPoint x="710" y="890" as="sourcePoint" />
            <mxPoint x="810" y="890" as="targetPoint" />
            <Array as="points">
              <mxPoint x="760" y="890" />
            </Array>
          </mxGeometry>
        </mxCell>
        <mxCell id="BNJmITa53caQSYUBU9Bt-39" value="&lt;b&gt;Object Types&lt;/b&gt;&amp;nbsp; Tables&lt;div&gt;&lt;b&gt;Load&lt;/b&gt; :&amp;nbsp;&lt;/div&gt;&lt;div&gt;Full Load(Trunc &amp;amp; Insert),&amp;nbsp;&lt;/div&gt;&lt;div&gt;Batchs Processing.&lt;/div&gt;&lt;div&gt;&lt;br&gt;&lt;/div&gt;&lt;div&gt;No Transformation&lt;/div&gt;&lt;div&gt;&lt;br&gt;&lt;/div&gt;&lt;div&gt;&lt;b&gt;Data Model&lt;/b&gt;: None&amp;nbsp;&lt;/div&gt;" style="text;html=1;align=center;verticalAlign=middle;whiteSpace=wrap;rounded=0;" vertex="1" parent="1">
          <mxGeometry x="350" y="940" width="110" height="60" as="geometry" />
        </mxCell>
        <mxCell id="BNJmITa53caQSYUBU9Bt-40" value="&lt;b&gt;Object Types&lt;/b&gt;&amp;nbsp; Tables&lt;div&gt;&lt;b&gt;Load&lt;/b&gt; :&lt;/div&gt;&lt;div&gt;&lt;br&gt;&lt;/div&gt;&lt;div&gt;&amp;nbsp;Full Load(Trunc &amp;amp; Insert),&amp;nbsp;&lt;/div&gt;&lt;div&gt;Batchs Processing.&lt;/div&gt;&lt;div&gt;&lt;span style=&quot;background-color: transparent; color: light-dark(rgb(0, 0, 0), rgb(255, 255, 255));&quot;&gt;&lt;br&gt;&lt;/span&gt;&lt;/div&gt;&lt;div&gt;&lt;span style=&quot;background-color: transparent; color: light-dark(rgb(0, 0, 0), rgb(255, 255, 255));&quot;&gt;&lt;b&gt;Transformation :&amp;nbsp;&lt;/b&gt;&lt;/span&gt;&lt;/div&gt;&lt;div&gt;&lt;span style=&quot;background-color: transparent; color: light-dark(rgb(0, 0, 0), rgb(255, 255, 255));&quot;&gt;&lt;b&gt;&lt;br&gt;&lt;/b&gt;&lt;/span&gt;&lt;/div&gt;&lt;div&gt;&lt;span style=&quot;background-color: transparent; color: light-dark(rgb(0, 0, 0), rgb(255, 255, 255));&quot;&gt;Data Normalization,&lt;/span&gt;&lt;/div&gt;&lt;div&gt;&lt;span style=&quot;background-color: transparent; color: light-dark(rgb(0, 0, 0), rgb(255, 255, 255));&quot;&gt;Data Standrization,&lt;/span&gt;&lt;/div&gt;&lt;div&gt;&lt;span style=&quot;background-color: transparent; color: light-dark(rgb(0, 0, 0), rgb(255, 255, 255));&quot;&gt;Data Cleansing,&lt;/span&gt;&lt;/div&gt;&lt;div&gt;&lt;span style=&quot;background-color: transparent; color: light-dark(rgb(0, 0, 0), rgb(255, 255, 255));&quot;&gt;Derived Columns,&lt;/span&gt;&lt;/div&gt;&lt;div&gt;&lt;span style=&quot;background-color: transparent; color: light-dark(rgb(0, 0, 0), rgb(255, 255, 255));&quot;&gt;Data Enrichment&amp;nbsp;&lt;/span&gt;&lt;/div&gt;&lt;div&gt;&lt;span style=&quot;background-color: transparent; color: light-dark(rgb(0, 0, 0), rgb(255, 255, 255));&quot;&gt;&lt;br&gt;&lt;/span&gt;&lt;/div&gt;&lt;div&gt;&lt;span style=&quot;background-color: transparent; color: light-dark(rgb(0, 0, 0), rgb(255, 255, 255));&quot;&gt;&lt;b&gt;Data Model&lt;/b&gt;: None&amp;nbsp;&lt;/span&gt;&lt;/div&gt;" style="text;html=1;align=center;verticalAlign=middle;whiteSpace=wrap;rounded=0;" vertex="1" parent="1">
          <mxGeometry x="535" y="990" width="110" height="60" as="geometry" />
        </mxCell>
        <mxCell id="BNJmITa53caQSYUBU9Bt-41" value="&lt;b&gt;Object Types&lt;/b&gt;&amp;nbsp; Views&lt;div&gt;&lt;b&gt;Load&lt;/b&gt; : No Load&lt;/div&gt;&lt;div&gt;&lt;br&gt;&lt;/div&gt;&lt;div&gt;&amp;nbsp;Full Load(Trunc &amp;amp; Insert),&amp;nbsp;&lt;/div&gt;&lt;div&gt;Batchs Processing.&lt;/div&gt;&lt;div&gt;&lt;span style=&quot;background-color: transparent; color: light-dark(rgb(0, 0, 0), rgb(255, 255, 255));&quot;&gt;&lt;br&gt;&lt;/span&gt;&lt;/div&gt;&lt;div&gt;&lt;span style=&quot;background-color: transparent; color: light-dark(rgb(0, 0, 0), rgb(255, 255, 255));&quot;&gt;&lt;b&gt;Transformation :&amp;nbsp;&lt;/b&gt;&lt;/span&gt;&lt;/div&gt;&lt;div&gt;&lt;span style=&quot;background-color: transparent; color: light-dark(rgb(0, 0, 0), rgb(255, 255, 255));&quot;&gt;&lt;b&gt;&lt;br&gt;&lt;/b&gt;&lt;/span&gt;&lt;/div&gt;&lt;div&gt;&lt;span style=&quot;background-color: transparent; color: light-dark(rgb(0, 0, 0), rgb(255, 255, 255));&quot;&gt;Data Integration,&lt;/span&gt;&lt;/div&gt;&lt;div&gt;&lt;span style=&quot;background-color: transparent; color: light-dark(rgb(0, 0, 0), rgb(255, 255, 255));&quot;&gt;Aggregations,&lt;/span&gt;&lt;/div&gt;&lt;div&gt;&lt;span style=&quot;background-color: transparent; color: light-dark(rgb(0, 0, 0), rgb(255, 255, 255));&quot;&gt;Buisiness Logik&lt;/span&gt;&lt;/div&gt;&lt;div&gt;&lt;span style=&quot;background-color: transparent; color: light-dark(rgb(0, 0, 0), rgb(255, 255, 255));&quot;&gt;&lt;br&gt;&lt;/span&gt;&lt;/div&gt;&lt;div&gt;&lt;span style=&quot;background-color: transparent; color: light-dark(rgb(0, 0, 0), rgb(255, 255, 255));&quot;&gt;&lt;b&gt;Data Model&lt;/b&gt;:&amp;nbsp;&lt;/span&gt;&lt;/div&gt;&lt;div&gt;&lt;span style=&quot;background-color: transparent; color: light-dark(rgb(0, 0, 0), rgb(255, 255, 255));&quot;&gt;Star Schema,&lt;/span&gt;&lt;/div&gt;&lt;div&gt;&lt;span style=&quot;background-color: transparent; color: light-dark(rgb(0, 0, 0), rgb(255, 255, 255));&quot;&gt;Flat Table,&amp;nbsp;&lt;/span&gt;&lt;/div&gt;&lt;div&gt;&lt;span style=&quot;background-color: transparent; color: light-dark(rgb(0, 0, 0), rgb(255, 255, 255));&quot;&gt;Aggregated Table&lt;/span&gt;&lt;/div&gt;" style="text;html=1;align=center;verticalAlign=middle;whiteSpace=wrap;rounded=0;" vertex="1" parent="1">
          <mxGeometry x="712" y="990" width="110" height="70" as="geometry" />
        </mxCell>
        <mxCell id="BNJmITa53caQSYUBU9Bt-45" value="SQL SERVER" style="text;html=1;align=center;verticalAlign=middle;whiteSpace=wrap;rounded=0;fillColor=#e51400;fontColor=#ffffff;strokeColor=#B20000;" vertex="1" parent="1">
          <mxGeometry x="340" y="530" width="130" height="30" as="geometry" />
        </mxCell>
        <mxCell id="BNJmITa53caQSYUBU9Bt-46" value="Ad-hoc" style="shape=image;verticalLabelPosition=bottom;labelBackgroundColor=default;verticalAlign=top;aspect=fixed;imageAspect=0;image=data:image/png,iVBORw0KGgoAAAANSUhEUgAAAIAAAACACAYAAADDPmHLAAAABHNCSVQICAgIfAhkiAAAAAlwSFlzAAADsQAAA7EB9YPtSQAAABl0RVh0U29mdHdhcmUAd3d3Lmlua3NjYXBlLm9yZ5vuPBoAABreSURBVHic7Z15cBNXnse/r3XbsuX7BBsbjI05DAQIIRBMQm4mHMmQyTU5hlSFTGYyNXtXbdV6t2qOzdbu7MxuSJgcZDbJkCETSMhBEgjhcLgJtrGNL3zb+JZkybrVb/+Q1WpZkiW1JFvI/lRRtF6/7n7u9+t3/H6/93vALLPMMnMh012Aifzvnw6mioGFLEsLQLGEUFJAiWgRAIgZ1NvstI0R0VoQ2i622hp37do5Mt1lvpmZVgH4w3tfJEqtlo2UsJtAmTUALQGQGtRNCIYo0ACKCyDscZldfOonP9mqi0yJY48pF4A33vgk0yaij1NCHyXAKgCisD6AwAaKCwQ4QEV0/+4f7xgI1637+nQZRMKuIBTFAC0mBMUEyKBAPIBkOP4nAPQANAAxUNBeENrEsEwDIbRJLCaXVCpV1LRaUyIAFRUVTGbB8q1g6S4Q3AMKcSDXSSRiMITAbLECAGRSCewsC5vNHtiDCWwAviQsfbOvs+bTiooKNphy9/b2xkmlirtBcCdANlFgCUJ/ZyyAGoCcALEf1yQnf11EiDnEewomogJQUfGtODNf8xiAfwRQ6vFwQhCvkGPMaAKllEsvzM/B4pIC5Gan41JVAy5VNQAAVi0vwS1lxejtG0JtQxvaOnrd7hWnkGPMYPRaFgJaRwl+kxpn+2Dnzp0+JYhSygyq1esIZZ4C8CMAicL++oDRgtDDAP0wLTn5C0JIgNIdHiImAK+/fXArJeQ/AcyfeC43Kw3FRfkYGFSjtqGVS1fGK3DHbcuRNyeTS5soAKuWl3DnOrr7cOpsNcbGXJW+dNF8pKcloaG5A719Q96K1gxKf7n7uR2f8RPb2qg8QTX6HKX0bwEUCPyzQ6UZwCuaFNW7U9UqhF0A9rz9USFhmN+DYgs/XS6ToqQoH4sW5kOVqERtQysqz9Vw57MyUnH/5rWQSSVu95tMAADAbLHii6Nn0T/o6lbvuK0MpcUF0Izq0dDUgYbmDpjMFveCUnoYhLy89d5bBySyuBcB+kuAZIflJYROD0D/Sz+atKeggJgi+aCwCsBrbx96CQSvAFA406QSMZYtXoBlixdAKnF0/V29Azhy7CxY1tHs52al4b671kIi8Rwa+BMAALDZ7Pjq2/Po6nGM9xiG4IHN6zAnJx0AYLHaUFPXguq6FlitNu46Qoh5WekCfdH8OcHNPKYKiutgyMvpKarPI/WIsAjA7/YdSpIBbxFgB3djQrC0tBArlxVDLpNyeccMJhz4+BtuYJeRloyt96+HSOR9MhCIAACA3W7Hx0dOY3BIAwCQyaR4dNudiFPIuTwmkwWXaxpRe63VbcyRm5OOVWUlXgUwKiDksAj2n6WkpHSG+9ZMqDfY86dPlsmBK/zKT1YlYPsDd2Dd6qVulQ8AleequcpXKGS4d9Man5UfDCKRCPfftZarcLPZgsrzNW555HIpbl+zFNse2IAkVQKX3tM7iGOnLkE7OhZyOSICpQ/ZKVMzMKzZGe5bhyQAe94+uJGw7CkA85xpy5cU4ZGHypGRnuyRv7W9F22dNwA4Woi7N65GfLzCI59Q4hRy3LVxldfn8clMT8EPHypH2ZIFXNrYmBEnv/seQ8PasJUnzKgI8JfBEfX/dXV1he2lCRaA198+uJUQcgSACnB8gXfdsQprVy32+kXbbHa3L7KkKB85WWlCH++T3Kw0LFqYz/2uPFftVW8gEolw26oluKd8DcRiR3ktVhtOnatCd2/YdEfhh5Kn5HHKoxqNxvMLE4AgAdiz79A2SshHGB/sxccrsP2BDSgqnOPzmtqGVhiMjgGtXC7FrSs91AJhY+0ti6GQywA4xhz1je0+8xbOy8HW+zcgPs7RdbB2Fhe+r/c1hYwSyO1WO60cHh6eG+qdghaA1/Z99BQBPYBxFa4qUYkdD25EWmqSz2tsNjuqa1u437euXAy5XOozf6jIZFKsWbmI+11V2wyb3bd+JT01CTu2lEOVqAQAsCzFuUu16Ozuj1gZQ4eUshB9Nzg4WhzKXYISgFffOriegPkTQCSA40VvuXsd9/X4oq6xDUaTQ6+hjFegeEHIguuX4gV5SFDGAQAMRhOuTdIKAEB8nBwP3n0bN2hlWYoL39djRD0a6aKGwlww7DdqtTrff1bvBCwAv9t3KIlhyPuUN3U0my347OgZXGtqh93HF0YpRU2d6+tfsXQhGCbkyYdfGIbB8iVF3O/quha3qR8fm92O+qZ2fH70rIfC6NzlOjfdQRSSa2PxhVarTRFycUA1QSklCmAfgDzAMYJ3oh3V4+SZKrz34de4eOWax1Sqq3cAYwZH3x+nkKOkSLCwBk1JUR43LdSPGdHdO+h2Xjuqx8Ur1/D+h1/j1JkqaEf13Dnnn2gwmDg9RPRCSi029nAzpbJgrwxoAp45b/kvAPzC+XvzxlXISE/G4JAGdrvDwGaz2XGjfxi111rR3TsAm80OhUKG6toWqDUO8/ySRYWYm5sRVAF7+4a4AVlOVlpQMweGYWA0mdE34FATU0qRlqpCU2sXzlyoxbnLdbjRP+w2S3COH4rn56N13Nik0xsgk0qQkhxpu1AokDyF0ZT4yiv//mUwV/lVfe1959B8luLXzt8rli7EggLHaH9xcQGuNXfgav116PQG7pq+gRH0DYyg8nwNCE/ZmD8nuMoPB/PmZqGqthkA0NLWg5a2bq/5EpRxWLZ4PkoW5HMawaERDXdtTf11ZGemIc7PeGc6oSA/HxpSn0hLSz4U6DV+BYBS8nuAKgAgNTkRq1e4VLESiRjLSudjSUkhOrr70NTSiY7ufrCsy+xO4ep3Pz5SicSEeGSkJyNZlYBkVQKSVEqoEpUQiUIbF9jtLLSjeqi1Omi0eqg1OgwMqTGq43dJ7mMAhmGQPycTxQvykDcnCwzjrhlfs3IROnv6MaIehd3O4nJNEzasXRZSOSMNJeStkZGRy4GqjSe1Bbz+9sePUEI/BBwGlu0PbER6mu/pHgCYzBa0tveio7sPnd39PgdeE5HLpFAoZFDIZYiLk0MqFgOEQK0ZxY3+YQBAdmYqkpMSAUphsdlgMJhgNJlhNJo9rX2+/mBCkD8nE3lzszA/Pwcy2eTT0aERLQ5+dpIT6nVrlkZEgRVWCDmcnqLaGlBWXyf27t0rsUszGsm4bbxs8QLctnpJwGVgWRb79n8Oq9XRv2amJ2NYPRq4N0+YEItFSElKxMCQGgAgkYjw7GMPBjUTOXPxKmrqrgNwTGPv2XSrR2sRdRCyJRAros8uwC5Jf9xZ+TKpBCuXLQzq+Tf6h7nKVyUqsf3BjWBZiuERLYbVWq6ZVmt10I8ZONOwUBiGQBkfh+QkV9eSmqJCarIKDEPw54+OYlQ3BqvVjr6BkaC+4lvKStDY3AmzxTo+m+hH3pyskMobeeh/t7XRb/z5E3gVgIqKCoYh+DtnlaxYttBvUzkRp20eADfyZxiC9LQkr92I0WiG0WSGwWiC0WSB1WYDZSnaOm9wuvk5ORkozM8GCIFELIZCLkWcQg6FXAaFYvIZ0NzcDNQ1tDnK1jsQlADIpBKULSnChe/rAQANTZ2Ym5vpNh2OOigWKBM1uwH8brJsXgUgc17ZdkqxGHD0zUtKCoN+Pl+XHsjUT6FwVOLEqZbRZOYEICsjBaXFwry18nIzOQHovRG8nn9Z6XxU17XAbLZgVD+G3v5h5Eb7WADkbyilrxJCfA6QvHaElJJdzuNFC+dx1rJAYVmKYZ4KNStj+h1uMjNcirLhEW3QXY5YLEJJUR73u92LmTkKyR0c0T41WQYPAXjjjU8yCaGbAceIubR4XtBPVWt1nGo4QRnn4ec3HchlUijHfQ9sdjs0PK1foCwpKeSa/f6BYZjM0+bNHTAE+HtKqc++ykMAbBL2Saff/pycDM6gEgxDwxrueDIr4VTDLwu/jIGSoIzj/AxZlqKrZ9DPFVHBwkG1er2vk55dAAXndjR/Xo6gJw6NuLxq0lJUgu4RCfhl4ZcxGArzXe8kqh1HeBDKPOHrnJsA7N17QAXgFsAxYs+fK2yqo9a4+v9oFQC1QDNvQV4OpwNQa0ZhnWK9hkB2+jIUuQmAXSbbiHEDUWZ6CudVEyw6vWuhRmJCvKB7RAJ+WfRj3lcQ+UMulyIjzeGNxbIUQ8PqsJQtwiQnqUc3ezvhJgCEsnc6j7MyhY/c+cuzwun0GSr8suh9LCELBP6sZmAo+LHEtEDpJm/JE8cAq50HWemC/AtgMls4da9UKuEWg0QDMqmEs/RZrTbOPT1Y+FNKfncX1RAEJACcf5k3t+5A4Detyig0ncbHuVqBMYHdQCbv3fC7u6iGYrk3T2JOAPbu/TQN48EZpBKx4P7fYHCpnqOp+Xei5JXJ10pif8Qp5FxLYjZbYBHYkkwxjN2OVR6JzgNWZuG+/lAGbnz/OWkUKIAmIpW6uiSnsUoI/HekGzNMkjN6oJR4eBBzAkBYEbcyNhQB4Ltfi8Ow5Cvc8Ms0mau4PxJ5CjKTKTBfhGmHsEUTk1wtAMAtlpPJhH+5fHt/sDaEqYBfplB8E/jWUZs9qMAj04hnC8C1hwRsgtM/RK3R48rVZkGPcHrvAMCwWif4Pq77jbgdh3q/EY0rflR7V5/gmYBG67IlWG03xRgAADxUu5yRYM++jw8Q0B9ObXligzm56Vh7S+DeUtMFAdrTUpPc7OmRX6ExS9TA7+adcF0Aw9DvKIsfAo61ck6rV7AMDqnRPe5wkZGWhNxsYfdx0jcwzHUD2ZkpIfsW9PQNYmDQob3LzUoTrO/o7h3A4PhS8vSUsCzUjThkMgGgLNU5e4SU5ETcestiQQ+pa2jjBCA9LVnwfZxcqmrgBCA3O8NnhJBAqTxfwwlAQX4OliwK3tsJcKw6dgpANA52vULh4QXjmgZShtNpWkJYCxeuUXaksPNG7KGsReArfyRRqO/wCoFHBFXXNJDYuSUz/FU+wRLtAsBXVInFwu0UBqPLG0gRpMPsNDKJADCEm19ptMJD7Up4LzUaVaTOZeoABKu7AYfbmxMhXlPThG8BeOnpHcMARgDHlyvUXs6PFRCKyTVSuAmAH1dyX+j0Bq4liVPIbpoxAAX6JqZN7AS5ddDDamEuU3xji1AhiiRGftMtMEoJP2hEojJ6HF78wRDa6JHG/0EJPeM8FhojRyaTcl+E1WoLaUAZbux2O7eGkGEI5DJhLQA/KmlSkjIsZZsSWGZyAWAoc8p53NMr3OM1WlsB7egYt1g1QRkveH0fP3ZQhkDHmenBTwvASsWVcIQzx7B6VLCVSxnvGhTpdNETfFHLK4sqUVjTPWYwcR7FIhGDtJRoDhrhBiuVMlcmJroJwItPbFED5ALgiKbR2tk7MX9ApCS5FE5C3a8jAd+Ak5QorOnu6nF9/WmpyWCYm2MACIrqxMTE4YnJnpoQwu53Hja1CAtNG+oCjEjBH9jyQ8UGQ9P1Lu44O/Mmav4JjntL9hQABh+M77SBvoERt68mUMKxACMSDAy6XLgz/AS68IZGq+cGxwzDIC8n088V0QMlJDAB2P3jHQOEuqTlWlN70A9LUiVw4WJ1egPMAUbviCQms4ULFyMSiQQFfKrnvYvc7HRIQ3CcmWK05rHRb72d8LE6mP6P87i+qT3owSDDEKTyXnDf4PTvkTTIX6+YohIUq7CZ1/zPy4uWvSUC4sDcuXO9Tse8voUXnt3+OYB6wDGXr6lv8ZZtUvgBGPjBInxhsdowotGhs7sf19t70NDcgfqmdreK6xsYQW1DK5pbu9HZ3Y/+wRGotToYjCa/y7356xOEmrqdxqPEhHhBXch0QQn7rq9zPifCr+07+BxA3gIcL++xh+8OSnfe0zeET7+sBOCYcj22427YbHaMqEcxpNZieEQLnc4A/ZgB+jFjyAojhUKGh+5bj+RJBncdXX0YM5hQUpQnqAUYUY+iubUbOdnpgrWIUw5BS1qyaiEhxOsX4tMclhpve29oTPIPBFhosdpw9mIt7txwS8DPzc5IgUQigtVqh3Z0DH89fAIjmlG3EHLhxGg0o6u7f1IBELrY1QlhGMwvyA3pHtPAf/iqfMBPmLg973z0IKEMt7vWD+693a+Hj8lkQWtHDzq6+4MKEycWiaBUxkEZL4dMKuX2DBwc1nDdQHZmKlKSE2GxWGE2W2G2WGG2WGC2WJEQH4d7N62J2GIUk8kSlcYtP3RrUlQLJtuBzK8udM++j48Q0PsAx1YwD/+g3MP6xbIsOrr60NjSic6egUm/coVChoy0ZGSmJyMlWQVlvALKeIXH1jJOAt0zKJKwLIVaqwtYmKMFSsnLGWmqP0yWx69HBAPbz1mIrhAgXq3VofJ8NcpvXwnAMXC71tSOq/XXfer8CVzxOQNpQaIRvcF401U+KK6P6RL/6C+bXwF44dlHmve8c+iXoNgLAA3NnchIT4HZbMGVq81enT6yMlKxoDAX+XOycPZSLVrbHSrl7huDERUAm82OS1X1aG7tDJs3ktVmj0rHFn9culJ/uqq28eWyjY9aCZirSeTGtydOnPAYaQdsDnt936FDFNjm67xCIUPpwgIUL5jrtrSss7sfXxw7C8CxqPKJR+4Jyhcv0C7g+5oGVPx2L7p6PHweZnHQTBnyXPWJ/ZX8xIBrwsbQXQRom5iepFJi47oVePKRe7B6RYnHusI5ORmcl5DBaELj9bBvfYfvaxqw+5e/nq38ySkiLD22fMPO2/mJAXtFvvT0juHX3vzkYSJiLzt3DZHJpHhw8zokJPj2iWMYgrLFRThz8SoAoOpqM0oW5Ict1q7NZkfFb/fCYnU00wnKONyz6baQQ9NQSqM7EmiAjOrG8NXxs9A7VjDLQJi3y8vLFzu7g6DcYnfv2nplz76Pn2RA36GAxGy24PBXlXjw7nVIUvk2r5YWz8OV2iYYjWaM6sbQ0taNhfPDs2/Qpap67stPUMZh/5u/QW628H0JKKWws2xUrmwWyjOPP4THdv2TUwgWau1ZGwF8AwhYGvbis9v+zBJ2O+AIQqzTG3Doi1NublITEYtFKFvs2qTx3KU6wYsyJ9LY3M4d33vXupArn2VpTFU+4OiG773zNlcCIcudh4JWRrz4zMOfU4bucAqB2WzBZ1+f8bkbB+DYXcSppDEYw7cPD9/LNzVZeEg6lqVgKQ1544pohe+jQUE5dangv/bFp7cfIYRuAaAFHEajYycv4dTZaq87iEkkYqy/1bXbRl1D66StxlTiWC1EIZqC3cyijZD+4hee2f6NnaFrQHHNmVbf2IaDn53kNmjgU5CXjYJxMyrLUnx1/AK3m+h0YbXZwIgYMAyDxpZON4+fmUDIIv/S0zuarFLZWgCfONOG1aM49PkpnObtFO5k/doybtdQg9GEb05djpiBaDJYlsJmsztWMlGKE99dwbeV3+P46cszSgjC0ub9/MkHRl94Ztt2QrAL410CpRR1DW344OAxXLnaxK2kiY+T475Nt3Lm2J4bg/jy+HmfG09GAqvNBkIcg1NKKU6eqUJDc8eUPT+aCFunRwihLzyz/S2xjV1CQLi9aowmM85frsd7f/0al6sbYTCakJWZinVrXBE1Orv78eXxCxFfRGK3s312u+OrJ4R4rfySovxJN8GONcI+6nn++Ye7X3h22xZQch8oOD90s9mCi1eu4d0DX+GLY2ehkMuwcpkrZlFXTz8+/OS4W4yhMMECuAigViRisvhb21eer5lQ+XnYuG65TwVQLI4RIjbs3f3ctq/6O6tXEYrHCWidM51Sis7ufhw9cRFVtc1uCzR0egMOf1mJoycuom8gZEFoA3ACQC8cIXDdgvicPlfNbSEDOCt/hdfKpzE8RohoIN+KigoWwH4A+1/bd6icgLxIQbcBkAAOP4KJew1TSnG9vQfX23sgFovA/2L9mWQNBlM/gGsAMgEswviuZxMJtvJjeYwwZZGcdz+7/QSAE2+88UmmVcJuZSh5iAJ3AdRnQGGbze5m1h1R6ywAhgEMAugC0F57rSUfwBYAiIuTZ8JR+T4JtfJjbYww5aG8n39+az+APwL446uvHlCSeNFGQpnVBGQVBV0NwKcut63jxr8RQn7FT1t+x48qMC4A/ghH5U82RrgZmdZY7j/96U49gM/H/wEA3nzzQIoV4hyRWFRoo/Z1hGA+tUNJCPN1f2fV74U+K5jKBxxLwGK98oFpFgBv7Nq1cwSOSCW1AA6H457BVj4At3OxWvlAFApAuBFS+QDczNVFhXNisvKBGBaAcPTh4fJZiGZi1vw1U/rwUIlZAQimD49FDV+gxGwXEEgf7q2bmAnNPp+YFQBg8sqMdQ1foMRsFzAZM0HDFygzUgCCtQLGMjNOAITqBWKVGSUAs5XvyYwRgNnK905MzwKAmWPVE0rMtwDNrd2zlT8JMS8AfGYr35OY7wIWzp8LQgBKY9uqJ5SYFwAAKCqcWerdYJhRXcAsnswKwAxnVgBmOLMCMMOZFYAZTszPAliW4six7zAwFB3BKKaLqqse+0UBmAECcOTYd/jnX7063cWIKijoUudxTAnAOcs1mPQH3dKum8IflzCWiCkB8EbhprkghELTPuo/cwzTXz+EgXrHfkcE5KozPeYFgBCCwk35012Maafq/TpOAPjMzgJmODe9ABAQbkt048j0RhyLZgzDrnD+lFCuP7zpBYAS1DiP2093QdcXPVvVRgu6Pj3aT7uCeDIsqXYe3/RjgCRy41sNzWoGUGQZs+LTnx1FwYa5UOZMzbbulALqVseWNimFKsCHuTnQfOFG3zuGttNdsBrGw/UR0qhibpx0no8J43hZ+WPrCUuPARC2H/zMwQzgzqpTH5xxJtz0XQAAVJ/YXwnK3gWgabrLErUQ0ogJlQ/ESAvgpLy8XKxFRjlrZ5YyZPJYQeGCUroehNwOABmlacgsTfOajz8PB6XfEUIqvWYMMyxFPwPUqER9J0PaMmYW74zHKPoXACh7vBTLn1jsNV/V+3Wo/nO98+e/Vp36oGIqyuePmOgCZhHOrADMcGYFYIYzKwAznFkBmOHMzgJ8UsGUbWh8HIROul04oXQzCNkMANnLM5C9wvvs88aVftyoGnD8oPQYJeTYpI+npKf69P734dp5NyLMCoAPyjY89iQh9N3pLQV9surUX96P5BNmu4AZzmwL4Buy/I5HHycgSyfLRCkhAC0dv6SeEO8x7QPNx+UHaqpOfbAfEe4CZplllpnM/wOP3g1tESIwpgAAAABJRU5ErkJggg==;" vertex="1" parent="1">
          <mxGeometry x="975" y="640" width="100" height="100" as="geometry" />
        </mxCell>
        <mxCell id="BNJmITa53caQSYUBU9Bt-47" value="Machine Learning" style="shape=image;verticalLabelPosition=bottom;labelBackgroundColor=default;verticalAlign=top;aspect=fixed;imageAspect=0;image=data:image/png,iVBORw0KGgoAAAANSUhEUgAAAIAAAACACAYAAADDPmHLAAAACXBIWXMAAA7DAAAOwwHHb6hkAAAAGXRFWHRTb2Z0d2FyZQB3d3cuaW5rc2NhcGUub3Jnm+48GgAAE6lJREFUeJztnXmUXVWVxn81JFWZSAiGQAJJmCQMYRBkJukWaaFpRCASA2kQFbGl7e6ANtIorQLaDFEQbWjXEhkbGVtCoysBpBFF6QSQIZUAhpCQkZDEQKaqSlX1H9+7nfvOPe/ec+69b6iq96111qLIPfvtc+65Z9j72/tAHXXUUUd/wSDgXOB+YBGwqVAWAT8HpgOtVdOujrLis8A7QE9CWQacXx0V6ygHWoA7SH7xZvlpoW4dvRgNwL34v/ygPFCQUUcvxT8TfambgOuBI4EhhfJR4IbCv5nPX1pxrevIBaOB9yl+mQuAvWLq7FN4JlxnIzCqrJrWURZ8i+IXuRoY61BvD+Bdo+6/lkfFOsqJVyh+iX/nUfcSo+4fc9eujrJiMMUvsAMY4VF/RKFOWMagnHWsCTRWW4EyYYzx91Lgzx71/4xsBnEy+wT66gAwv9btKWR0GH8PTqlLTaOvDoDhxt/j8DPqtALjjf/ns4TUUQWMBL4M/B67UedsD1lTS8j4A9og7pKb1nVkwgDgdOAhYBvxVr02ZPRJwhDkHIqT1Q48AnwKGJhba+pwxuHAD4A1+Jl2HweGxsgdBvzSU+Z7wC3AUTm2rw4LdgMuI3q+t5UO4NFCMf/tDeT2DW/qBiM38ZuW5+8D5gJdDr+7ELgC2DP31vdTtALT0Je7neQX8CLwj8CuofrzSjzbjqb6RYX/tj3zG6C5IGsP4OtoKUnSowt4CriA+Bmn12IQ8DfA94A7kdfsVuBi1FFZ0AAcD/wHsIHkzl6JHDkHl5A3Cvidgxzbyy+12TsK+BGwzkHOJuAu4ONkP3XtC+yeUUYmDAeuAT4gfvT/AjjAU/YE4Jtoik7q1K1oaj4VaHKQ3QrMovSXHi7bkLfQ5djYApyFlhrTcmgr7wD/BhzoIDuMU9AJpAfopJiw0oB8Fb8FvkMZ7RVH4MaoCXfkJQkyhyGmztMkr7HdqJEXET3nu2I/NFu8ZZHfBlxL9PzvilFo+XkhoR1BmQd8hXhP40DgJ5a6b4Se+bTxb0uAg1K2oSROBLZYFHEpVxiyGtF0eDd2/7tZlgDfRtNfXhhj+Z08cTAaaCstv2OWYMN6NsWzzgDgv0vUeTL03GWWf388z8ZMANZafmQF8H00HU0DvobWTduScAYwEfgubrPI+8DtwBTKw8gp9wAI0ISWqftw+4DWAf8OHIuWCtszcymepUYDfzKe+XmejXjIEN6NNn+lvGMnER35nSUaYw6UucAMym93r9QACGM4Wr6eRX3oO5MuA04oIXsoGjCbkOt677yUPtyi7Ncc6u2LDCQuDWsDLif76cEH1RgAYeyDljXbXsRWVqL9iw8OYsdxODW+ZyjyrEfdCyjdoMB69tGsCqZEtQdAgAZgMmIgb7ToFJSpnnIDA1g7MlenxnxDkU971G0mOgvMAc6k+vbzWhkAYQwGziNqs3gdP/vBAUb9P2RRarUhbDfP+o8Z9U/KokyOqMUBEOB8ivW627P+wUb91XEPJ40s0we+wVOZ9cbfac/v/QlmHy33rL/Z+DuWx5A0ANYaf/uaIc2N3TrP+v0R7xl/+/a5yXx+N4MuPEPxdHKxR93hyGQbrr8UuBr/HW3eqMUl4FBkVzGX3eW4mbsDfMeo/3QWpczImjdxp1Z9l2gnByUw634B2CmLgilRKwNgNDATnd3jjoGfd5Q3kujG+6tZFBxP1IFyN8kj8pO4uW97kIXsHuCvqBxHsZoDoBU4B5l5XQxkPcgyeoSD3DlGvW3kwE34gUWhucD+lmcHI8+U2bA1aEOY1NB30Mxhk50nqjEAjgNuw83FvZ4o22kT8CV28BPCOAL4X4ucG/JQfCfgVYvw7cgwdHPhhx5EfHrzuQ5kwmxBBo3HcBv5z6E9RznYuJUaAOOBb6CzfFJ7O1HfTEV9dTx29/VqNGNeh4xp87Cbll8mRzLKBOSVc5muzEada5EXrH0vO8gIfP+n4LcZisM4y+/kNdCGIivor3Gjkb2M+mK0RdZU3DgMZnmL9G7tkhiF3JCuSqxEbt8kHIY7wXMFGvm+ZJMAf4nSw5hRwz2oo38FnJxCbuDivgs3F/ca1ObDHGRPRqcn136fC3woRRuccQbi3pfyaK1Cjg7fLypM8Xb5cp5HcQA7O8jeHfnIXTvxUbSjTkLg4l7mILOr0LbTC231wTC0lCyPkf0c2nx7IYuvfQzyW49FruH1aDp7oaBQWsxE52FXtAOzETdxDtEwsEno5fvuht9Ay84S4/+PBD6DTLZHe8q8FH35adEIfATNHLug5XEFevmrMsitGUwn+vUvR3w+F3bNKuBGdhBER2L/OrsRg/ieQnkR+4zWhr4+nwCUYPmbRfSL7Sq0sQ4LTia64dmAvmDQBvAUlPPHhV0zH30Z5v//L+yWyA8jMqv5/Iu47U+2FHQLb1YnET32tZNun9GncQTRjdlWRAmzYSfgQuB/cNsvBOU64pe9BnSkdZXXVdDhQkpbNKcQNYm7GHb6DfYlav/uwj2YczxuZ+2ncNvzNCD7eZys1wu/Od5Rx7OJDtTV5Et07ZWwERp7SKaTl8IxiFRpC9g40UPOZEv9gLB5TErdzLQzPajttvN/v8Aw7Bz6a3OQvb8hcwN+foZGolbNPMzT1xJt7wuoL/oVBgJPEO2M28mHBn6cIfe1FDJeM2Qcm4NeDaiNZrufoPo0uYqhEZl2zU54HLujIw0mGbKXppBhHh8nxT/ujGbsRqn76LsZW4pg8y4+j1vyBhccAvzYkN+NH+18T6J2gR8XZOeBIajNZj9kMRL1ClyOfUed1XY9Gvgn4CWL/KBc4yEvjszyUuG3sm7ePoT95HJ5Rrk1iwuIflUriU/dGgdf9/JW3Ey3xxA9t9uK6b5Ng72IWji7UV/1KZxKNHx6I27eMBPHolwELgQTs6xHeQ1K4ZO4ETZscm8l3UbxMKJBIR2oz/oEjibqIm3HL0ZgHHAlycmbgs4LvsyPYfenP41Sx04ulC8ji57tKz8ZBcS4zjSLCrqO82jfSRY9N+HvbKoKWpHTxbaD359oZHEX8qYlYSjyuD2Fm7nXTA8T4AuO9W3lMkOWK4kzaOdThTa4MHM+Y9FzLXb7QzPq86pcb9OKWKqPUTwNd6KOuQatbWOws4hmxshuRF/tncRnIQnKCuLTwwSYil9+gw40cOJwCPL4rXKQ90GhTR8j/qg301J3CerLvVEE8KsUE27XI3f456jAgJiOG/mhAzt5oRRJcX80cFyYLzavmwv2QrzFpNDsR/FL4dIMnIaYRi6bx6WFtpayLNqcUctxS0GzFDGOc0cTcJODAnHlHoqtfDujddjmsjVLNwpS+TzZ4wjGoWOcbWaakFH2CERkdU1K9RzqgzCrqQH1VZa+/j45G5VmxfzYFpJ3znORqbMZESsexI1Y8SZwFemPinEwfytv7IeioN62/JZZtqE+OR310UDUZ3F1NhC/rF2fV0NseXM3o9wB4WlsOApvNq9cCaZVV+LnBpQi7njKe2FTuQdAgEbgL4CfYSejmiUgjNqSXL6GWNbhWXAi2htstjx/ZlblW4hmsVhK/KarBW14fKasThQpcw6V29lWagCEMQT4W+T88T2Z3EG8w2gS0f3ZnxLqJOIcQ+A23JwiTegIlNSolyjNiS83qjEAwtgTZVBbaNHFLE/gtuE9hKg9wTe7SBFMr91NHnXNRAVBWYX2FHk5VtKi2gMgjKORs8lGZOnG71TyQ6P+vVkUM50VvhmxzcifS8gvuicramkABGhBMRXmLOmDY4z6i+IeTjoqmPfktHkqYz6/jGwxA30d7URTuvj2+QLj79ir8pIGgPll+O7Kzedr5UurZWTtc/Oddvs8bMKMNvFNcmw+P57aWQJqES1EU8L49rkZN7kyvTrwnxSvJzd71DVpWfVNYGnEbQJ78Ev+fItR954siqU9Bjaj8Oj6MbA0fI6BT+I2cx5KzsfAgcBiQ+Ay4gdBC0oj42PkqBuCksudxDOPDiGaiPtNcmAbn21RZgvROP0RyPdtG9F1U3A+puA2lEw7nEvwQORBtPkFzsirETfGKLwVe2qYcKk7g+JLWmdQnPv5ujwb04idzu1TasUdvAtyqJi/MZPsaVXycAc3Et18+5YbKVOMwTTcSBu1SAjZG3VsUvq6R/BLZJk3IcT2obkSQt7GL6F3KrQi+tFsio8tncj0ey0iVtQSJWwGbktOULYV6sShHJQwMzFnD9p0j0V9ejU6OYXJqevQfuFC0tPTM6HWSaH/QLobOrqBvzdklZMUer5Fzw3YbQBNVJEU6otq0sI/jp3K/SRaqwNa+MXY3dcdBRnlpoXb4ia2UTpBRq9DrQSGrCM+4OK0lHKzBIbYPpAutN/qU7iA6oaGbcHtipqjqVxomG2J7EHZxPokqhkcerWHvGti5OQVHFpqk+xDuumVqFZ4eKxf3MAelDc8fAT2NLkP0g9yBPT3BBGt2OMQf0Mv2dXngf6aIqYJeJhou9twS03bp1DLSaKaKE+SqFuJtncFZcjs3VtQyTRxkz3kTLHUX4f2AWlDtq+yyEx7FO5TqFSiyF/jtrw0Yl+jw2UhInO45h36okVGB/WUsf+PSqWKvYHkVLFxcZBm6UJ7mRmUPsV8iqgDqhuZfusIIe9k0Vuxn7NnY1/PJyJWkvn8AtyvvP8ZIn8Eg+zEErr+S5oO6g/Imi4+uI7ui+isPYrS6eL/iAbTvZR27ryL7Ae+N4IsQYQMm1n5ttx6q8o4EPHbLkWpVGaQz1nZliUjqbyFImpsyZcPxW3wmGUdoqWZGAZ8FuUZ8uX1zSY7Lb4FOBwNyBMRd6FiVPuByEVqEkXDZTF6ib728QEoS9fDuHXsRnTt+mSSN3fjsCdmLFXmofsDkjAe+Ca6XcRF7izS35r6CTSAbLyGd1FfJPEiMmEibu7Y8Ff5EQe5R6KARptTxCzb0cVO56JranzQiDZepfwF29GmcjrpjFHHITKrS5q58DKVhDGozS593gX8BP++ScRRJBM/bWUz9rx8eyDHkC2ZhK28iq5ANWMV02Ify2/4RuCUgs/NoMGVeKdin8YPwG0Dapb55BhrsTt2fl8nIlbchKa22dizVGxBTpSAEz8Xtyl+TUG2yyySBubv5TW4wtgN7ZFc7kdcgdK6BAygXbFvYNcj/uH1qH+ewc5z/D05+RZs5stfIZKliZEFpUxP2grcOH5herTv1Wq+qMQACCO4H9E0etnKPPQCzQ/uSuzT+35E7w3uIac8Qabn7g6Sd50z8OPhPYfuxXW5AzAvVHoABGhGy+IDuBNVOxFbKQ5N6JhqflDjsyp8KDuWgPtx/zJtM0e4vI1IGi677XKgWgMgjJ3RwE+Kjfi2o7wWor6Vq/JQtJnicCQXjCW61oetZdUmPtTCAAjjw9hjI7bgd6XMl4z6L2RVbBIyiKR5Yaa712ZYqRZqbQAEmEKxXnM96+9FdACVRNJL/SrwCjq33u2pCESZOFUJXOhlMPmRvgkezOcHEbO3ShoAYb/8dPzv3zU9ZO2e9fsjNhp/+26MTWZRD7I3pIJpPv1rj7pNRIkZc4CzqI0bsmptCRiIMnuax7m1+Nn6p1nqp4bJ4D3Lo+50op0clCAHwAmUNwdAHGplAByEUr3G5U5w5Q40oOU6XPfhLMpNYIdP/RHc1/DdkfHH5Yy7EPnHfZeXrKjmAAhM4W0WPWxlLW7XzF5hqXteVmUb8OPsH0s0v7BL6UKmZddgyqyo9AAYjAxkrqZws6xCLuBSsm8kanx7nTJYVD+H3I8LkSHnNLQ3uAhx+20OkLvQ8vEobnHuQTj1SZTPXlCJAdCAjnW345YeJiC0XIQ4FrZnnkVh5NPQx3Iz9hD1LsSgyhWjcIvDC5f5FBsyRqEwbhsl3FaWoXv8JubclnIOgH2R9S5YPpPKEuyEltsc69tKWe4f3A2/6euXxPu8D0ZETVfGzvPoaLpLSv2De3dsiazeQtNoWtP0cPTl/hY3P8j7aGaYQumNcCNy6Pj4VTpRToSy4eskzwKrC0q4Hl+akE/8PtwIn+1oU3oGbkfKVuSytl0hZ5YOdOWKiys1rLdLRHEX2gPMQOu2K05GnIgk+c/gn9A7FUahpAoPINflYuTQuBORIbIEeg5HN3Y9i9vIX4sYRUfG6OqatClcfleoa4PvzNWGpmSf+4tNNKI90S0F3RYjQs2TKJqqIi++0tgH+Bbup4oFFHd0M9FzcVC2oqVgIaW/3nnsmAl2RXuXFx11eQ+9LJecBHUkoAGRP39K9JrVuKnWFoW8EO2gw8SKQShvkY3z+AvcTy/thefPpDasnX0Sg5FxYw7JKd/M8hjxy9NQ7MEhSWU+8BWyJ7qowxNjcSeXLsBt4zUEtwTOK1Dwh08m7zrKiCR6uY8fw5YfuYcdSSo/Qf3eg5rFQPSywy9uM35chFaix9FvkD1NbR0VwgiiGz9fmMuAT17DXoNq8/IqhTQOEXMX35OHInVUDuEglQ7cwrAC7EzU2pm3L6Im0JdngFdC/z0AP7/4eRRnLPsAOWzq6EUwk1Kuwc0UO47oSeL+MulYRxkxmqgPvo14Zs1+2G0AJ5RV0zrKhiuJvszNyO17FDL6DEGZv2ZhD259qOJa15EbmpD519e0G5TF1M27vR47YY+cTSpt2COg6+iFaEJuZdsUb5YuxNSpW/36IMYgIusrRF/8UuS/L2uenVpDtYIyagGDkDdxAPLsvV9ddeqoowr4P8TWy3cjQbDeAAAAAElFTkSuQmCC;" vertex="1" parent="1">
          <mxGeometry x="977" y="810" width="100" height="100" as="geometry" />
        </mxCell>
        <mxCell id="BNJmITa53caQSYUBU9Bt-48" value="BI &amp; Reporting" style="shape=image;verticalLabelPosition=bottom;labelBackgroundColor=default;verticalAlign=top;aspect=fixed;imageAspect=0;image=data:image/png,iVBORw0KGgoAAAANSUhEUgAAAIAAAACACAYAAADDPmHLAAAABHNCSVQICAgIfAhkiAAAAAlwSFlzAAADsQAAA7EB9YPtSQAAABl0RVh0U29mdHdhcmUAd3d3Lmlua3NjYXBlLm9yZ5vuPBoAABHXSURBVHic7Z13eBXVtsB/6YUWExMSCOUSJISEhBKIlFxFNJQISABRigWflIRygfekKBIEeRcUFAlNEAEp0oKAiDQLiE8Q+EITRJokJIGQJ9LSc+4fJwlnTp2TM3Ma8/u++b4zs/fsWTNrnbX3nr32HlBQUFCwRxKBLEBlYssEethIRikIA5KBNcAZIBcorthyKo6tBkYBTWwko03IxLTyK7drNpKxurgBQ4GDQDni77Mc+BEYUlGGUyP2oVRujkJ34DTm35/2dgroZmXZrYqzGYAXsADLFa+9rQF8qiuUS3VPtAICpS445i5IHBdbqp3fnu+lLrAbaK0vsXNbP7p29Cc+1o9nXz0hSJteD84XQsYD+L3QYPnHgZ7ATXMFczedRcFCgoADQKTmQVdXF4b0DmbCsIbENK9l8OQoH/XW/zG4Vgzbb8Ohuzoury2wH+gK5JkjnGIA8uKN+p8vUH5YQx8+/3ck8bF+ZhXW0BPGBMGztWHJTcgpESS3rLhWJ6BIbJmuZkmgYC7zgDaaB7o8+RgZO540W/maRHjD7FCI1K352wIfmlOWMxqAvbw/6I66f1/Fc5382fVpa2r6Wt6Dq+kK74ToNYLRQILYcpzRAJYC9UXkCwWWySSDKzBH80Dj+j5sWhCNj7d0j9zdBf47GEI8dJLmIlK3zmgAoWbkbSCTDAOB6ModNzcX1s+Pwq+29E2umq4wKkinCxRTIYNJnNEA7IHhmjsDe9alQ+s6sl0swhvidTsSb4o51+l7AaoLzwr2XZrtl/uSjYB/Vl3PBaaMaCz3NentBwfvCg49hdrDZRo7T/EA0pOIxnN9slUdoprVlP2ijTyhmbfgkCvql0NGsYYB2Eur3FrEau50jw+w2oVb+xqXRR/WMAB7aJVbE0G//+m4x6x24XBvnUNt9GQTYI02gD20yq1JsOZOgxBdrZjDgEsWnR5kKoPSBpCe2po7QQGeok/c+M0NqWUx2fWwei9g5vl7gv1pzeVvIFkZwTMVO0S58ZsbDJl4RlZZ9KF4AOkRjMbl3y4xlK+KzbvVyi8tkzysweTIoNO/B7ABuUC9yp2r1wuNtgMq//maynd1c6f/B5/Rsmc/sy585eghVr4i6EiZNADFA0jPSc2dg7/+ZTCjlMoHyDr5q/ahDFPnKAYgPYc1d749mK83k9TKBzh3YJdRWfShGID07EcdvQvAT8dvc+aCsOErh/JvXb1I1smjmofKK2QximIA0vMn8J3mgQ8/+7PqtxzKB/hxyRxUKkEjch8mxgFAMQC5WK65s+arHA7++pdsys/MOMKprzcZlcEQSi9AHrYAJ6h4FatSwcvjz3Azv1hy5Rfdu0v65BGUl5VpHj4GbBNzvuIB5KEcmKh5IPtmkeTKLyspZsPYQdy6elHzsAqYgEY7xBiKAcjHD8DH+hJc3dxI+vcyi5Rf/OA+65IHcunn77WT5gOHxJajGIC8vIWerliNgCAeq9+o2oVmZhxhSVIn/ji0TzvpMDDFnLKMGUBL1FOZzgD3qP7UJXOx1XlybMWo4/QF3L2Zw4ohCWydPJy8yxdEC3rr6kW2Th7OisEJ2m6/kk4V11Sh1tkZ1F4oylCZ+hqBXsBHwAgUDyEbqvJyMr5az8ntGwiNbkfzromERscSGBaOdy31gGLhnb+5deUPsk4f5/yBr8nMOKrd1TNGDdQTUiJRh4ovRd02KNbMpG0AXqhnl3Sp/q0pmINKpSLz5FEyhS9xpMYNSAEiUEddVRmB9j/8YxTlOzPPoJ6tVIWmB2iJVjhzYEgDkt/+iNjOCfjWMDyB0RhdnzBv0u6BP1Q2Oc+alJeVcfjAdrZ+/jFnjv8k2q27uLjQMjaepNfG0alrH1zdDM8wenD/LicO72f5h5PJuiJoZ4wClgC/gdAA3kDDIwSGNGD5zgxq1fEXf2cKonB1cyM+IYn4hCRu3bjO/323k3MZR7hy4TR5uVncv/s3ADVq1SEwOJQm4dFEtIrjyS7P83hdMeGV4FujFp0T+hIT9xRvPh9DXm5WZZIbal1PBKEBPKdZQPLU+QLl//LDLj56ZwS3blw3euHA4FAmzPqU9k85VoCvre7v8br16fXySHq9PFKS8rSpVcefkVPmMXOcYKJQ1dxBzTaAICAzNl64+sjH00aafDgAeblZzJ82olrC2hJnvr928ToryTSs/KHpAQSVvHadr+FCTJKXY3IQyu6w1v0d3vcVC98bY9b1jBEQVI+x09PonNDXYJ4atXRiQ6sCV5V+vhX5YddGZowZIJnyAfJvZvPJjNHVPr/ao4Gbw4T7Fsav2x2qpcIJHS4jDYd2ieGHXRuZPXEIZWU6axvZFMUDWAE5lV9ZBVQXJR5AZn7cvVlH+a5ubkyeu5quvQfbULIKWWwtgDPz4+7NvD9+kN0qHxQDkA1HUD4oBiALjqJ8UNoAknNob7qO8t3c3Jk6by1PJ4patseqKB5AYhZMT3YY5YNiAJLj4vJwNNLelQ+KAUjO+JnLCAgMITCkAdMXbrZr5YNw+rpgUFp7nNzccXZnxxZxBJagR38uoHiARx7RBhAYbM5SP85NYIgzLGWkRrQBTJj1qWIEqJU/cdanthZDMkS3ARQcG6UNoKAX0W8CD+7ZStqMMeTn5cgiiHZki/b1xES+KJiP6CpgQMcQ/j8vV1ZhAoLqsenwdYPX00xXMA9DVYAyFmAmxUWF7NywlAM71nH14m8A/OOJKLr2GUyvl0bg4ellYwnNQ3QbYMz0NAICQ2QTRDuyRft6lka+SEFebhYp/eNY/P54fj99jKKCBxQVPOD8qaMsmjmOlH5x5N/MtqmM5qL0AkRSXFRIclI7rlwwvppnWPMYFm09YneeQOkFWMjODUtNKh/g0vmTfP2l47wnUAxAJAd2rhfsx9aAFY1heWP1b032pK+itNT0ErH2gGIAJigsuM+cSa/x+ynhKpwjA6GOG/i5wfDHhef8cfYEbz4fw7Gf9lpR0uqhGIARrv5xluSk9uxNX62TptlC0rca07VL55j0ejfeHfUC2dfsd9KEYgAG2JO+iuR+7fmzoqunzbI8+KsM8kthqZElmQ/v386wHpF8Nm8qBQ/uGc5oI8zuBRQXFbJj/RIO7FjHlQtnUJWXExYRQ9feg+k9aJTdtX7NpbDgPgtSU/T+6y3l8br1Gf7WHJ7pNUgQOWQNDPUCzDKAvJxMpvxXT4Ot4SbNo5m9fJfDjhr+efE3ZowZoPdf3y3pNa5ePKvTFtAmIiaO5Lc/Ytmc/+HMcf1rNUe26cjoaZ/QLKqtJHKLwWIDKCkuYlTfWIftB5tiT/oqPkkdTWHBfcFxb58ajEtdRELSq+Tn5TBtRG9+P31MbxnNo9vz3pJtBATVQ6VS8d3O9Xw6d5Leaecurq706D+MNya8j1+AyU/7WIzFBrDl849YMnuCqIuNeXchLwyt/oxVa1JYcJ9PUkezJ32VTlqjpi2YvnAzjZq2qDpWWlrCN5tWsO+rL8i8/DtlZaU0fiKSbkmv0S3pVR3DL3hwj/VLZrN55XxKinW/6l6zth+vjJlOnyEpuLvrfgRYKiw2gOSkdgLLj+rel8Rp80ClYueM8fy2b0dVWuMnIpm1bAchDZpII71MmHL541IX4eWj+zG+6pB97RJL/3cih/dv15veMCyClHc+Jraz6A9/m4XFBtCzpS9FhQVV+5MOX6Zmheu6cyObD55qJizd1ZX2/+xOn8EptP9nd1xc7avDIcbly8Gxn/ayaNa/uHbpnN70Ts/2YeSUedRrGKY3vbpYbAA9onwoLiqs2jdlAJqENGhCr0Ej6dF/GLX9rPclTX2Y6/LloLS0hO1rF7Fm4Qzu3bmtk+7h6cWAYRMYNGoqPr7Cr6qVlhSze8tK9m5bQ+bl84ALDcOa073f6zz3wlCDbS/Jq4DIbi/w/LvzUZWX8/V7EwRVgCE8vbzpkvgSfQYnEx7dzmR+qTHl8sempuHtU0PPmfJwO/8mn81/m91bVqIq132dpN1tvHXjOu8m9zXYE4mIieO9JV/hHxisk2axAaSvXsCiWf8ScVvqwElT6+iER7ejz+BkuiS+hKeXZV/XFMPe9NUsSE3R6/LHpqbRLek12WUwxIUzx0mbOZazJ37Wmx7VthMjJn3A4vfHc+7kEaNlhUe3Y+Gmn3FzE4Z6WGwAxUWFpPSP4/L5U0YFaBrRikVbj3Dp3Em2r1vM97u+FFQd2tT2C6BH/2H0GjRSlkZjUcEDFqSm2NTli8FUt9Ecxs1YTO9BowTHpHkRlJvF1DcTDRpB0xatmb38awKCqj6bx53b+ezespKd65eSk3nZoNBiG40lxUXsSV/F3m1ruHz+FB6eXjRoEk7X3oNJHPimoCtlby5fDKa6jZX0ivZgxdAalKtUjFj7gB2nHo4+xsQ9zfy1wu8ISGIAoG6E7Nyw7OGrYFSEhUfzbJ8hagV46P9Wrqq8nKMHv2X7ukUcPfit3jqvEkONxvyb2bwzojcXzhzXe154y1hmLduJf2CwXbt8MZjqNubOrUPd2uo/SfbtcupP/rsqrbZfANt+vSXIL5kBSEFO5mV2rl/K7i0ruXNb/3f1QNhoDGvRirEvdjT4Fq6S8Oh2NG4aaTcu31Q0taloZ0Pdxpy5dQiuMIDMv8ppOOWhAdSs7cf248JVzezKACopLirk+11fsn3dYpPv2MU0LI2RkPQq41IXWd3li4mmNhXtXFpawriBnTl/6uGS8r2jPVg62JfSchi+9gHfnn1YBbTu8AwfrjkgKMMuo4I9vbwrXqGqAy6MNRq1ld/yKRdenOqGiwtsmFnG2UP6DdbLx5dxqYvs3uUbw93dg+79XxcYwI5TJew49bfe/E/3FD8l3W5ez4VHt+OtOZ+z8acshk+aa7JH8OIUN2oHQC1/GDhV/7LpjZq2YPHWozZVvqloarHRzj0GvEFETJzJfM2i2tJzwBui5bPbqGBTjcYZ37jjVzGI9vdNeLencBFGW7l8Ocm/mU1qSj9+y/hFb3p4dDtmL9+Fn3+gTppdtgHEkpN5mbeH9xJ051p0dGHgO+oqYONsYRUQERNH2hb9D8nRKS0pZk/6avakryL72iVKiov4R7OWdEt6lef6vmJwRNGhDQBg25qFpM0cKyqvNYejLZ0zaa05jw5vACXFRaT0i+PS+ZNG8zWNaEXall+sFpAixZxJa8x5dPiJIR6eXsxesYuw5jEG8zSNaMXsFbscLhrJljiMAYB6dGxx+lFGT/uEFq2exMe3Jt4+NWjRugNjp6eRtuUXwWtoa2DpnElbz3l0mCpAwTIcvgpQkAeDHkDB6VE8gIJiAI88igE84hgcDRz44hBryqEgMxs3rdV7XPEAjzii4wGysq5x4sSvFGhMDhGDj48Pbdq0J7R+A73laKcrWBfRHuB4NZQPUFBQwIkTDwMZtMvRTlewLpoGcFczwVHWuFEwTUmJji7vVP7QNABBzFVurnB4s22bdvh4+5h98UoXb6gc7XQF6cnJ1Vm78M/KH5ptgH1AVbjsqdMZBAUF4+mpDvMODW1IaGhDLEWqchTEUVxcREaGThj9vsofmq+Co4AMoCrAztfHl1at2hIcXA8PD/nmritIT0lJCTm52WRkHKeg4IFmUhkQDehd/CgN9ZiAsjnvtgAjeAL77UBIZZNn2weYdOWewEKg1A4EVjZptlLU/3wd5RtbqywSGAYkAI2AWkbyKtgfd4GrwF5gJQbqfGf6GKA7kA1UBcV/8cU64uPjLSr00KGDDB0qGBfJB4JR/6scHmcaC+iKhvL9/f3p0KGDxYV26NARf3/BsjYBwDMWF2wnOJMBDNDc6datO+7ulk99dHd3JyFBZ+WuAfryOiLOYgDuQG/NAz17JkpWeGKiTll9EdGadgScxQBkcf+VGKgGukh2ARviLAYgi/uvxJmrAWcwAFndfyXOWg04gwHI6v4rceZqwN5JBLKw/ds0c7dMoIcMz+ORIxPbK7O62zUZnoekOMKbQJWtBbAQu37GztAGULAAh/t2sL3PVzAUf2+vKB5AQTL6oR6Ns3XDy9m366jfQUiClA2UHNTDpArykw3Ul6IgpQp4xJHSAEaj9gIK8pKN+lkrKCgoWMh/AFS3OqCUbZHuAAAAAElFTkSuQmCC;" vertex="1" parent="1">
          <mxGeometry x="977" y="990" width="108" height="108" as="geometry" />
        </mxCell>
      </root>
    </mxGraphModel>
  </diagram>
</mxfile>
